<?xml version="1.0" encoding="UTF-8" standalone="no"?>
<!DOCTYPE svg PUBLIC "-//W3C//DTD SVG 1.1//EN"
 "http://www.w3.org/Graphics/SVG/1.1/DTD/svg11.dtd">
<!-- Generated by graphviz version 2.36.0 (20140111.2315)
 -->
<!-- Title: G Pages: 1 -->
<svg width="364pt" height="1074pt"
 viewBox="0.00 0.00 364.00 1074.00" xmlns="http://www.w3.org/2000/svg" xmlns:xlink="http://www.w3.org/1999/xlink">
<g id="graph0" class="graph" transform="scale(1 1) rotate(0) translate(4 1070)">
<title>G</title>
<polygon fill="white" stroke="none" points="-4,4 -4,-1070 360,-1070 360,4 -4,4"/>
<!-- n1 -->
<g id="node1" class="node"><title>n1</title>
<g id="a_node1"><a xlink:title="[[C]]:&#45;1">
<ellipse fill="none" stroke="black" cx="178" cy="-1028" rx="75.4903" ry="37.4533"/>
<text text-anchor="middle" x="178" y="-1039.3" font-family="Times,serif" font-size="14.00">Node1</text>
<text text-anchor="start" x="132.5" y="-1024.3" font-family="Times,serif" font-size="14.00">input = {}</text>
<text text-anchor="middle" x="178" y="-1009.3" font-family="Times,serif" font-size="14.00">gradOutput = {}</text>
</a>
</g>
</g>
<!-- n2 -->
<g id="node2" class="node"><title>n2</title>
<g id="a_node2"><a xlink:title="[learner.lua]:236">
<ellipse fill="none" stroke="black" cx="178" cy="-906" rx="136.207" ry="48.1667"/>
<text text-anchor="middle" x="178" y="-924.8" font-family="Times,serif" font-size="14.00">Node2</text>
<text text-anchor="start" x="89.5" y="-909.8" font-family="Times,serif" font-size="14.00">input = {}</text>
<text text-anchor="start" x="89.5" y="-894.8" font-family="Times,serif" font-size="14.00">module = nn.Reshape(1479x35)</text>
<text text-anchor="middle" x="178" y="-879.8" font-family="Times,serif" font-size="14.00">gradOutput = {}</text>
</a>
</g>
</g>
<!-- n1&#45;&gt;n2 -->
<g id="edge1" class="edge"><title>n1&#45;&gt;n2</title>
<path fill="none" stroke="black" d="M178,-990.344C178,-982.219 178,-973.418 178,-964.683"/>
<polygon fill="black" stroke="black" points="181.5,-964.503 178,-954.503 174.5,-964.503 181.5,-964.503"/>
</g>
<!-- n3 -->
<g id="node3" class="node"><title>n3</title>
<g id="a_node3"><a xlink:title="[learner.lua]:237">
<ellipse fill="none" stroke="black" cx="178" cy="-774" rx="101.236" ry="48.1667"/>
<text text-anchor="middle" x="178" y="-792.8" font-family="Times,serif" font-size="14.00">Node3</text>
<text text-anchor="start" x="114" y="-777.8" font-family="Times,serif" font-size="14.00">input = {}</text>
<text text-anchor="start" x="114" y="-762.8" font-family="Times,serif" font-size="14.00">module = nn.JoinTable</text>
<text text-anchor="middle" x="178" y="-747.8" font-family="Times,serif" font-size="14.00">gradOutput = {}</text>
</a>
</g>
</g>
<!-- n2&#45;&gt;n3 -->
<g id="edge2" class="edge"><title>n2&#45;&gt;n3</title>
<path fill="none" stroke="black" d="M178,-857.699C178,-849.544 178,-840.987 178,-832.597"/>
<polygon fill="black" stroke="black" points="181.5,-832.483 178,-822.483 174.5,-832.483 181.5,-832.483"/>
</g>
<!-- n4 -->
<g id="node4" class="node"><title>n4</title>
<g id="a_node4"><a xlink:title="[learner.lua]:238">
<ellipse fill="none" stroke="black" cx="178" cy="-599" rx="178.286" ry="90.5193"/>
<text text-anchor="middle" x="178" y="-647.8" font-family="Times,serif" font-size="14.00">Node4</text>
<text text-anchor="start" x="60" y="-632.8" font-family="Times,serif" font-size="14.00">input = {}</text>
<text text-anchor="start" x="60" y="-617.8" font-family="Times,serif" font-size="14.00">module = nn.Sequencer @ nn.Sequential {</text>
<text text-anchor="start" x="60" y="-602.8" font-family="Times,serif" font-size="14.00"> &#160;[input &#45;&gt; (1) &#45;&gt; (2) &#45;&gt; output]</text>
<text text-anchor="start" x="60" y="-587.8" font-family="Times,serif" font-size="14.00"> &#160;(1): nn.Linear(40 &#45;&gt; 35)</text>
<text text-anchor="start" x="60" y="-572.8" font-family="Times,serif" font-size="14.00"> &#160;(2): nn.LogSoftMax</text>
<text text-anchor="start" x="60" y="-557.8" font-family="Times,serif" font-size="14.00">}</text>
<text text-anchor="middle" x="178" y="-542.8" font-family="Times,serif" font-size="14.00">gradOutput = {}</text>
</a>
</g>
</g>
<!-- n3&#45;&gt;n4 -->
<g id="edge3" class="edge"><title>n3&#45;&gt;n4</title>
<path fill="none" stroke="black" d="M178,-725.727C178,-717.586 178,-708.857 178,-699.932"/>
<polygon fill="black" stroke="black" points="181.5,-699.794 178,-689.794 174.5,-699.794 181.5,-699.794"/>
</g>
<!-- n5 -->
<g id="node5" class="node"><title>n5</title>
<g id="a_node5"><a xlink:title="[learner.lua]:232">
<ellipse fill="none" stroke="black" cx="178" cy="-424" rx="172.301" ry="48.1667"/>
<text text-anchor="middle" x="178" y="-442.8" font-family="Times,serif" font-size="14.00">Node5</text>
<text text-anchor="start" x="64" y="-427.8" font-family="Times,serif" font-size="14.00">input = {}</text>
<text text-anchor="start" x="64" y="-412.8" font-family="Times,serif" font-size="14.00">module = nn.Sequencer @ nn.FastLSTM</text>
<text text-anchor="middle" x="178" y="-397.8" font-family="Times,serif" font-size="14.00">gradOutput = {}</text>
</a>
</g>
</g>
<!-- n4&#45;&gt;n5 -->
<g id="edge4" class="edge"><title>n4&#45;&gt;n5</title>
<path fill="none" stroke="black" d="M178,-508.46C178,-499.55 178,-490.684 178,-482.239"/>
<polygon fill="black" stroke="black" points="181.5,-482.173 178,-472.173 174.5,-482.173 181.5,-482.173"/>
</g>
<!-- n6 -->
<g id="node6" class="node"><title>n6</title>
<g id="a_node6"><a xlink:title="[learner.lua]:223">
<ellipse fill="none" stroke="black" cx="178" cy="-292" rx="103.417" ry="48.1667"/>
<text text-anchor="middle" x="178" y="-310.8" font-family="Times,serif" font-size="14.00">Node6</text>
<text text-anchor="start" x="112.5" y="-295.8" font-family="Times,serif" font-size="14.00">input = {}</text>
<text text-anchor="start" x="112.5" y="-280.8" font-family="Times,serif" font-size="14.00">module = nn.SplitTable</text>
<text text-anchor="middle" x="178" y="-265.8" font-family="Times,serif" font-size="14.00">gradOutput = {}</text>
</a>
</g>
</g>
<!-- n5&#45;&gt;n6 -->
<g id="edge5" class="edge"><title>n5&#45;&gt;n6</title>
<path fill="none" stroke="black" d="M178,-375.699C178,-367.544 178,-358.987 178,-350.597"/>
<polygon fill="black" stroke="black" points="181.5,-350.483 178,-340.483 174.5,-350.483 181.5,-350.483"/>
</g>
<!-- n7 -->
<g id="node7" class="node"><title>n7</title>
<g id="a_node7"><a xlink:title="[learner.lua]:222">
<ellipse fill="none" stroke="black" cx="178" cy="-160" rx="94.0678" ry="48.1667"/>
<text text-anchor="middle" x="178" y="-178.8" font-family="Times,serif" font-size="14.00">Node7</text>
<text text-anchor="start" x="119.5" y="-163.8" font-family="Times,serif" font-size="14.00">input = {}</text>
<text text-anchor="start" x="119.5" y="-148.8" font-family="Times,serif" font-size="14.00">module = nn.Identity</text>
<text text-anchor="middle" x="178" y="-133.8" font-family="Times,serif" font-size="14.00">gradOutput = {}</text>
</a>
</g>
</g>
<!-- n6&#45;&gt;n7 -->
<g id="edge6" class="edge"><title>n6&#45;&gt;n7</title>
<path fill="none" stroke="black" d="M178,-243.699C178,-235.544 178,-226.987 178,-218.597"/>
<polygon fill="black" stroke="black" points="181.5,-218.483 178,-208.483 174.5,-218.483 181.5,-218.483"/>
</g>
<!-- n8 -->
<g id="node8" class="node"><title>n8</title>
<g id="a_node8"><a xlink:title="[[C]]:&#45;1">
<ellipse fill="none" stroke="black" cx="178" cy="-38" rx="75.4903" ry="37.4533"/>
<text text-anchor="middle" x="178" y="-49.3" font-family="Times,serif" font-size="14.00">Node8</text>
<text text-anchor="start" x="132.5" y="-34.3" font-family="Times,serif" font-size="14.00">input = {}</text>
<text text-anchor="middle" x="178" y="-19.3" font-family="Times,serif" font-size="14.00">gradOutput = {}</text>
</a>
</g>
</g>
<!-- n7&#45;&gt;n8 -->
<g id="edge7" class="edge"><title>n7&#45;&gt;n8</title>
<path fill="none" stroke="black" d="M178,-111.573C178,-103.096 178,-94.269 178,-85.8099"/>
<polygon fill="black" stroke="black" points="181.5,-85.7224 178,-75.7224 174.5,-85.7224 181.5,-85.7224"/>
</g>
</g>
</svg>
